# xmcd
#
# Track frame offsets: 
#        150
#        10619
#        25233
#        42820
#        64725
#        78569
#        95192
#        113898
#        123731
#        135686
#        151816
#        156924
#
# Disc length: 2356 seconds
#
# Revision: 1
# Processed by: cddbd v1.4PL0 Copyright (c) Steve Scherf et al.
# Submitted via: ExactAudioCopy v0.90b4
#
DISCID=9909320c
DTITLE=Cripple Creek Band - Heartland
DYEAR=1900
DGENRE=
TTITLE0=Heartland
TTITLE1=A Song for you
TTITLE2=Honk-Tonk World
TTITLE3=Heal me
TTITLE4=Much too young
TTITLE5=Let's talk about Women
TTITLE6=Last thing to know
TTITLE7=uncle Pen
TTITLE8=Jukebox Junkie
TTITLE9=Games People Play
TTITLE10=Fisher's Hornpipe
TTITLE11=Ain't going down
EXTD=
EXTT0=
EXTT1=
EXTT2=
EXTT3=
EXTT4=
EXTT5=
EXTT6=
EXTT7=
EXTT8=
EXTT9=
EXTT10=
EXTT11=
PLAYORDER=
